<svg xmlns="http://www.w3.org/2000/svg" xmlns:xlink="http://www.w3.org/1999/xlink" zoomAndPan="magnify" viewBox="0 0 375 374.999991"  preserveAspectRatio="xMidYMid meet" version="1.0"><defs><g/><clipPath id="c55f9d26b7"><path d="M 50.425781 16 L 331.675781 16 L 331.675781 360.738281 L 50.425781 360.738281 Z M 50.425781 16 " clip-rule="nonzero"/></clipPath></defs><g clip-path="url(#c55f9d26b7)"><path fill="#ffffff" d="M 221.964844 338.746094 L 219.605469 348.300781 C 217.960938 354.941406 214.011719 360.753906 207.15625 360.753906 L 175.234375 360.753906 C 168.382812 360.753906 164.421875 354.941406 162.785156 348.300781 L 160.429688 338.746094 C 160.351562 338.433594 160.292969 338.121094 160.25 337.804688 C 160.207031 337.488281 160.183594 337.171875 160.179688 336.851562 C 160.175781 336.535156 160.1875 336.214844 160.21875 335.898438 C 160.25 335.582031 160.296875 335.265625 160.363281 334.953125 C 160.429688 334.640625 160.515625 334.335938 160.617188 334.03125 C 160.71875 333.730469 160.835938 333.433594 160.972656 333.144531 C 161.105469 332.855469 161.257812 332.578125 161.425781 332.304688 C 161.59375 332.03125 161.773438 331.773438 161.972656 331.519531 C 162.167969 331.269531 162.378906 331.03125 162.601562 330.804688 C 162.828125 330.578125 163.0625 330.363281 163.3125 330.164062 C 163.558594 329.964844 163.820312 329.777344 164.089844 329.605469 C 164.359375 329.4375 164.636719 329.28125 164.921875 329.144531 C 165.210938 329.003906 165.503906 328.882812 165.804688 328.777344 C 166.105469 328.671875 166.414062 328.582031 166.722656 328.511719 C 167.035156 328.441406 167.351562 328.390625 167.667969 328.355469 C 167.984375 328.320312 168.300781 328.304688 168.621094 328.304688 L 213.773438 328.304688 C 214.089844 328.304688 214.410156 328.320312 214.726562 328.355469 C 215.042969 328.390625 215.355469 328.445312 215.667969 328.515625 C 215.980469 328.585938 216.285156 328.671875 216.585938 328.78125 C 216.886719 328.886719 217.179688 329.007812 217.46875 329.144531 C 217.753906 329.285156 218.03125 329.441406 218.300781 329.609375 C 218.570312 329.78125 218.832031 329.964844 219.078125 330.167969 C 219.328125 330.367188 219.5625 330.582031 219.785156 330.808594 C 220.011719 331.035156 220.222656 331.273438 220.417969 331.523438 C 220.613281 331.773438 220.796875 332.035156 220.964844 332.308594 C 221.132812 332.578125 221.28125 332.859375 221.417969 333.148438 C 221.554688 333.4375 221.671875 333.730469 221.773438 334.035156 C 221.875 334.335938 221.960938 334.644531 222.027344 334.957031 C 222.09375 335.265625 222.140625 335.582031 222.171875 335.898438 C 222.203125 336.214844 222.214844 336.535156 222.210938 336.855469 C 222.207031 337.171875 222.183594 337.488281 222.140625 337.804688 C 222.101562 338.121094 222.042969 338.433594 221.964844 338.746094 M 273.59375 235.535156 C 274.148438 235.53125 274.695312 235.472656 275.238281 235.363281 C 275.777344 235.253906 276.304688 235.089844 276.8125 234.878906 C 277.324219 234.664062 277.808594 234.40625 278.265625 234.097656 C 278.726562 233.789062 279.152344 233.441406 279.542969 233.050781 C 279.933594 232.660156 280.28125 232.234375 280.589844 231.777344 C 280.898438 231.316406 281.15625 230.832031 281.371094 230.320312 C 281.582031 229.8125 281.746094 229.285156 281.855469 228.746094 C 281.964844 228.203125 282.023438 227.65625 282.027344 227.105469 L 282.027344 158.867188 C 282.019531 158.316406 281.960938 157.773438 281.847656 157.234375 C 281.734375 156.695312 281.570312 156.171875 281.355469 155.664062 C 281.140625 155.160156 280.878906 154.675781 280.570312 154.222656 C 280.265625 153.765625 279.914062 153.34375 279.523438 152.953125 C 279.132812 152.566406 278.710938 152.21875 278.25 151.914062 C 277.792969 151.609375 277.308594 151.351562 276.800781 151.140625 C 276.292969 150.925781 275.769531 150.765625 275.230469 150.65625 C 274.691406 150.546875 274.144531 150.492188 273.59375 150.488281 C 218.65625 150.488281 163.722656 150.488281 108.789062 150.488281 C 108.238281 150.492188 107.691406 150.550781 107.148438 150.660156 C 106.605469 150.769531 106.082031 150.929688 105.570312 151.144531 C 105.0625 151.355469 104.578125 151.617188 104.117188 151.925781 C 103.660156 152.234375 103.234375 152.582031 102.84375 152.972656 C 102.453125 153.363281 102.101562 153.789062 101.796875 154.246094 C 101.488281 154.707031 101.226562 155.191406 101.015625 155.699219 C 100.800781 156.210938 100.640625 156.734375 100.53125 157.277344 C 100.417969 157.820312 100.363281 158.367188 100.359375 158.917969 L 100.359375 227.105469 C 100.363281 227.660156 100.421875 228.207031 100.53125 228.75 C 100.640625 229.292969 100.804688 229.824219 101.019531 230.332031 C 101.234375 230.84375 101.496094 231.332031 101.804688 231.792969 C 102.117188 232.25 102.46875 232.675781 102.859375 233.066406 C 103.253906 233.460938 103.683594 233.808594 104.144531 234.117188 C 104.605469 234.421875 105.09375 234.683594 105.605469 234.894531 C 106.121094 235.105469 106.648438 235.265625 107.191406 235.371094 C 107.734375 235.480469 108.285156 235.535156 108.839844 235.535156 Z M 234.246094 174.414062 C 236.300781 174.410156 238.28125 174.804688 240.179688 175.59375 C 239.832031 175.851562 239.511719 176.144531 239.222656 176.472656 C 238.9375 176.800781 238.6875 177.15625 238.476562 177.539062 C 238.265625 177.917969 238.097656 178.320312 237.976562 178.738281 C 237.851562 179.15625 237.773438 179.582031 237.738281 180.015625 C 237.707031 180.453125 237.722656 180.886719 237.78125 181.316406 C 237.84375 181.75 237.949219 182.167969 238.101562 182.578125 C 238.253906 182.988281 238.449219 183.375 238.683594 183.742188 C 238.917969 184.109375 239.191406 184.445312 239.5 184.753906 C 239.808594 185.0625 240.144531 185.335938 240.511719 185.570312 C 240.878906 185.808594 241.265625 186 241.675781 186.152344 C 242.085938 186.304688 242.503906 186.410156 242.9375 186.472656 C 243.367188 186.53125 243.800781 186.546875 244.238281 186.515625 C 244.671875 186.480469 245.097656 186.402344 245.515625 186.28125 C 245.933594 186.15625 246.335938 185.988281 246.714844 185.777344 C 247.097656 185.566406 247.453125 185.316406 247.78125 185.03125 C 248.109375 184.742188 248.402344 184.421875 248.664062 184.074219 C 248.875 184.585938 249.054688 185.105469 249.210938 185.636719 C 249.367188 186.167969 249.492188 186.707031 249.59375 187.25 C 249.691406 187.796875 249.757812 188.34375 249.800781 188.898438 C 249.839844 189.449219 249.847656 190.003906 249.828125 190.554688 C 249.8125 191.109375 249.761719 191.660156 249.683594 192.207031 C 249.605469 192.753906 249.5 193.296875 249.363281 193.835938 C 249.230469 194.371094 249.066406 194.898438 248.875 195.417969 C 248.683594 195.9375 248.464844 196.445312 248.21875 196.941406 C 247.972656 197.4375 247.703125 197.921875 247.40625 198.386719 C 247.109375 198.855469 246.785156 199.304688 246.441406 199.738281 C 246.097656 200.171875 245.730469 200.585938 245.339844 200.980469 C 244.953125 201.371094 244.542969 201.746094 244.117188 202.09375 C 243.6875 202.445312 243.242188 202.773438 242.777344 203.074219 C 242.3125 203.378906 241.835938 203.65625 241.34375 203.910156 C 240.851562 204.160156 240.347656 204.386719 239.828125 204.585938 C 239.3125 204.785156 238.785156 204.953125 238.25 205.097656 C 237.714844 205.238281 237.175781 205.351562 236.628906 205.4375 C 236.082031 205.523438 235.53125 205.578125 234.976562 205.605469 C 234.425781 205.632812 233.871094 205.628906 233.320312 205.59375 C 232.765625 205.5625 232.21875 205.5 231.671875 205.410156 C 231.125 205.320312 230.585938 205.199219 230.050781 205.050781 C 229.519531 204.902344 228.996094 204.726562 228.480469 204.523438 C 227.964844 204.320312 227.464844 204.085938 226.972656 203.832031 C 226.484375 203.574219 226.007812 203.289062 225.546875 202.980469 C 225.089844 202.671875 224.648438 202.339844 224.222656 201.988281 C 223.796875 201.632812 223.394531 201.253906 223.007812 200.855469 C 222.625 200.457031 222.261719 200.039062 221.921875 199.605469 C 221.582031 199.167969 221.265625 198.714844 220.972656 198.242188 C 220.683594 197.773438 220.414062 197.289062 220.175781 196.789062 C 219.933594 196.289062 219.722656 195.78125 219.535156 195.257812 C 219.351562 194.738281 219.191406 194.207031 219.0625 193.667969 C 218.933594 193.128906 218.832031 192.585938 218.761719 192.039062 C 218.691406 191.488281 218.648438 190.9375 218.632812 190.382812 C 218.621094 189.832031 218.636719 189.277344 218.683594 188.726562 C 218.730469 188.175781 218.804688 187.628906 218.910156 187.082031 C 219.011719 186.539062 219.144531 186.003906 219.304688 185.472656 C 219.46875 184.945312 219.65625 184.425781 219.871094 183.914062 C 220.089844 183.40625 220.332031 182.910156 220.601562 182.425781 C 220.871094 181.941406 221.164062 181.472656 221.484375 181.019531 C 221.804688 180.570312 222.144531 180.132812 222.511719 179.71875 C 222.875 179.304688 223.261719 178.90625 223.671875 178.53125 C 224.078125 178.15625 224.503906 177.804688 224.949219 177.476562 C 225.394531 177.148438 225.855469 176.84375 226.332031 176.5625 C 226.808594 176.28125 227.300781 176.027344 227.804688 175.800781 C 228.308594 175.570312 228.824219 175.371094 229.351562 175.195312 C 229.875 175.023438 230.410156 174.878906 230.953125 174.761719 C 231.492188 174.644531 232.039062 174.558594 232.589844 174.5 C 233.140625 174.441406 233.691406 174.414062 234.246094 174.414062 Z M 148.148438 174.414062 C 150.207031 174.410156 152.183594 174.804688 154.085938 175.59375 C 153.734375 175.851562 153.414062 176.144531 153.128906 176.472656 C 152.839844 176.800781 152.589844 177.15625 152.382812 177.539062 C 152.171875 177.917969 152.003906 178.320312 151.878906 178.738281 C 151.753906 179.15625 151.675781 179.582031 151.644531 180.015625 C 151.609375 180.453125 151.625 180.886719 151.6875 181.316406 C 151.746094 181.75 151.855469 182.167969 152.003906 182.578125 C 152.15625 182.988281 152.351562 183.375 152.585938 183.742188 C 152.820312 184.109375 153.09375 184.445312 153.402344 184.753906 C 153.710938 185.0625 154.046875 185.335938 154.414062 185.570312 C 154.78125 185.808594 155.171875 186 155.578125 186.152344 C 155.988281 186.304688 156.410156 186.410156 156.839844 186.472656 C 157.273438 186.53125 157.707031 186.546875 158.140625 186.515625 C 158.574219 186.480469 159 186.402344 159.417969 186.28125 C 159.835938 186.15625 160.238281 185.988281 160.621094 185.777344 C 161 185.566406 161.355469 185.316406 161.683594 185.03125 C 162.011719 184.742188 162.304688 184.421875 162.566406 184.074219 C 162.777344 184.585938 162.960938 185.105469 163.113281 185.636719 C 163.269531 186.167969 163.394531 186.707031 163.492188 187.25 C 163.589844 187.792969 163.660156 188.34375 163.699219 188.894531 C 163.738281 189.445312 163.75 190 163.730469 190.550781 C 163.710938 191.105469 163.664062 191.65625 163.585938 192.203125 C 163.507812 192.75 163.398438 193.292969 163.265625 193.828125 C 163.128906 194.363281 162.964844 194.894531 162.773438 195.410156 C 162.582031 195.929688 162.363281 196.4375 162.117188 196.933594 C 161.871094 197.429688 161.601562 197.910156 161.304688 198.378906 C 161.007812 198.84375 160.6875 199.292969 160.34375 199.726562 C 159.996094 200.160156 159.628906 200.574219 159.242188 200.964844 C 158.851562 201.359375 158.445312 201.730469 158.015625 202.082031 C 157.589844 202.433594 157.144531 202.757812 156.679688 203.0625 C 156.21875 203.363281 155.738281 203.640625 155.246094 203.894531 C 154.753906 204.144531 154.25 204.371094 153.734375 204.570312 C 153.214844 204.769531 152.691406 204.9375 152.15625 205.082031 C 151.621094 205.222656 151.082031 205.335938 150.535156 205.421875 C 149.988281 205.503906 149.4375 205.5625 148.886719 205.585938 C 148.332031 205.613281 147.78125 205.609375 147.226562 205.578125 C 146.675781 205.546875 146.128906 205.484375 145.582031 205.394531 C 145.035156 205.300781 144.496094 205.183594 143.964844 205.035156 C 143.429688 204.886719 142.90625 204.710938 142.390625 204.507812 C 141.878906 204.300781 141.375 204.070312 140.886719 203.8125 C 140.398438 203.554688 139.921875 203.273438 139.460938 202.964844 C 139.003906 202.65625 138.5625 202.328125 138.136719 201.972656 C 137.710938 201.617188 137.308594 201.238281 136.921875 200.84375 C 136.539062 200.445312 136.175781 200.027344 135.835938 199.589844 C 135.496094 199.152344 135.183594 198.699219 134.890625 198.230469 C 134.597656 197.761719 134.332031 197.277344 134.09375 196.777344 C 133.851562 196.277344 133.640625 195.769531 133.453125 195.25 C 133.269531 194.726562 133.109375 194.199219 132.980469 193.660156 C 132.851562 193.121094 132.75 192.578125 132.679688 192.03125 C 132.605469 191.480469 132.566406 190.929688 132.550781 190.378906 C 132.539062 189.824219 132.554688 189.273438 132.601562 188.722656 C 132.648438 188.171875 132.722656 187.621094 132.824219 187.078125 C 132.929688 186.535156 133.0625 186 133.222656 185.46875 C 133.382812 184.941406 133.574219 184.421875 133.789062 183.914062 C 134.003906 183.402344 134.246094 182.90625 134.515625 182.421875 C 134.785156 181.941406 135.078125 181.472656 135.398438 181.019531 C 135.71875 180.566406 136.058594 180.132812 136.425781 179.71875 C 136.789062 179.304688 137.175781 178.90625 137.582031 178.53125 C 137.988281 178.160156 138.414062 177.804688 138.859375 177.476562 C 139.304688 177.148438 139.765625 176.84375 140.242188 176.5625 C 140.71875 176.28125 141.210938 176.027344 141.714844 175.800781 C 142.21875 175.570312 142.730469 175.371094 143.257812 175.199219 C 143.78125 175.023438 144.316406 174.878906 144.855469 174.761719 C 145.398438 174.648438 145.941406 174.558594 146.492188 174.5 C 147.042969 174.441406 147.59375 174.414062 148.148438 174.414062 Z M 331.933594 148.972656 L 331.933594 237.027344 C 331.929688 238.609375 331.847656 240.191406 331.6875 241.769531 C 331.527344 243.34375 331.292969 244.910156 330.980469 246.460938 C 330.667969 248.015625 330.28125 249.550781 329.816406 251.066406 C 329.355469 252.582031 328.820312 254.070312 328.210938 255.53125 C 327.601562 256.996094 326.925781 258.425781 326.175781 259.820312 C 325.425781 261.21875 324.613281 262.574219 323.730469 263.890625 C 322.851562 265.207031 321.90625 266.480469 320.902344 267.703125 C 319.894531 268.925781 318.832031 270.101562 317.710938 271.21875 C 316.589844 272.339844 315.417969 273.402344 314.195312 274.410156 C 312.96875 275.414062 311.699219 276.359375 310.382812 277.238281 C 309.066406 278.121094 307.710938 278.933594 306.3125 279.683594 C 304.917969 280.433594 303.488281 281.109375 302.023438 281.71875 C 300.5625 282.328125 299.070312 282.863281 297.558594 283.324219 C 296.042969 283.789062 294.507812 284.175781 292.953125 284.488281 C 291.402344 284.800781 289.835938 285.039062 288.257812 285.195312 C 286.683594 285.355469 285.101562 285.4375 283.519531 285.441406 L 235.050781 285.441406 L 230.320312 304.753906 C 230.210938 305.210938 230.066406 305.65625 229.882812 306.089844 C 229.699219 306.519531 229.480469 306.933594 229.226562 307.332031 C 228.976562 307.726562 228.691406 308.097656 228.375 308.445312 C 228.058594 308.792969 227.71875 309.113281 227.347656 309.402344 C 226.976562 309.691406 226.585938 309.949219 226.175781 310.171875 C 225.761719 310.398438 225.332031 310.585938 224.886719 310.738281 C 224.445312 310.886719 223.988281 311 223.527344 311.074219 C 223.0625 311.152344 222.59375 311.1875 222.125 311.183594 L 160.257812 311.183594 C 159.789062 311.1875 159.324219 311.148438 158.859375 311.074219 C 158.394531 311 157.941406 310.886719 157.496094 310.734375 C 157.054688 310.582031 156.625 310.394531 156.210938 310.171875 C 155.800781 309.949219 155.40625 309.691406 155.039062 309.402344 C 154.667969 309.109375 154.328125 308.792969 154.011719 308.445312 C 153.695312 308.097656 153.410156 307.726562 153.15625 307.328125 C 152.90625 306.933594 152.6875 306.519531 152.503906 306.085938 C 152.320312 305.65625 152.175781 305.210938 152.066406 304.753906 L 147.34375 285.441406 L 98.875 285.441406 C 97.289062 285.4375 95.710938 285.355469 94.132812 285.195312 C 92.558594 285.039062 90.992188 284.800781 89.441406 284.488281 C 87.886719 284.175781 86.351562 283.789062 84.835938 283.324219 C 83.320312 282.863281 81.832031 282.328125 80.371094 281.71875 C 78.90625 281.109375 77.476562 280.433594 76.082031 279.683594 C 74.683594 278.933594 73.328125 278.121094 72.011719 277.238281 C 70.695312 276.359375 69.421875 275.414062 68.199219 274.410156 C 66.972656 273.402344 65.800781 272.339844 64.679688 271.21875 C 63.5625 270.101562 62.5 268.925781 61.492188 267.703125 C 60.488281 266.480469 59.542969 265.207031 58.664062 263.890625 C 57.78125 262.574219 56.964844 261.21875 56.21875 259.820312 C 55.46875 258.425781 54.789062 256.996094 54.183594 255.53125 C 53.574219 254.070312 53.039062 252.582031 52.574219 251.066406 C 52.113281 249.550781 51.726562 248.015625 51.414062 246.460938 C 51.101562 244.910156 50.863281 243.34375 50.703125 241.769531 C 50.546875 240.191406 50.464844 238.609375 50.457031 237.027344 L 50.457031 148.886719 C 50.464844 147.300781 50.546875 145.722656 50.703125 144.144531 C 50.863281 142.570312 51.101562 141.003906 51.414062 139.449219 C 51.726562 137.898438 52.113281 136.363281 52.574219 134.847656 C 53.039062 133.332031 53.574219 131.84375 54.183594 130.378906 C 54.792969 128.917969 55.46875 127.488281 56.21875 126.089844 C 56.964844 124.695312 57.78125 123.339844 58.664062 122.019531 C 59.542969 120.703125 60.488281 119.433594 61.492188 118.210938 C 62.5 116.984375 63.5625 115.8125 64.679688 114.691406 C 65.800781 113.570312 66.972656 112.507812 68.199219 111.503906 C 69.421875 110.496094 70.695312 109.554688 72.011719 108.671875 C 73.328125 107.792969 74.683594 106.976562 76.082031 106.230469 C 77.476562 105.480469 78.90625 104.800781 80.371094 104.191406 C 81.832031 103.585938 83.320312 103.050781 84.835938 102.585938 C 86.351562 102.125 87.886719 101.734375 89.441406 101.421875 C 90.992188 101.109375 92.558594 100.875 94.132812 100.714844 C 95.710938 100.554688 97.289062 100.472656 98.875 100.46875 L 135.917969 100.46875 L 125.496094 57.097656 C 124.691406 57.054688 123.890625 56.964844 123.097656 56.828125 C 122.300781 56.691406 121.515625 56.503906 120.742188 56.277344 C 119.972656 56.046875 119.214844 55.769531 118.472656 55.449219 C 117.734375 55.132812 117.011719 54.769531 116.316406 54.363281 C 115.617188 53.960938 114.945312 53.515625 114.300781 53.03125 C 113.65625 52.550781 113.039062 52.027344 112.457031 51.472656 C 111.871094 50.917969 111.320312 50.328125 110.808594 49.707031 C 110.292969 49.085938 109.816406 48.4375 109.378906 47.757812 C 108.941406 47.082031 108.542969 46.382812 108.1875 45.65625 C 107.832031 44.933594 107.519531 44.191406 107.253906 43.429688 C 106.984375 42.667969 106.761719 41.894531 106.585938 41.109375 C 106.410156 40.320312 106.28125 39.527344 106.199219 38.722656 C 106.117188 37.921875 106.082031 37.117188 106.09375 36.308594 C 106.105469 35.503906 106.164062 34.699219 106.273438 33.902344 C 106.378906 33.101562 106.53125 32.3125 106.734375 31.53125 C 106.933594 30.75 107.179688 29.980469 107.46875 29.230469 C 107.761719 28.476562 108.09375 27.742188 108.472656 27.03125 C 108.847656 26.316406 109.265625 25.628906 109.726562 24.964844 C 110.183594 24.300781 110.679688 23.667969 111.210938 23.0625 C 111.746094 22.457031 112.3125 21.886719 112.914062 21.347656 C 113.515625 20.808594 114.144531 20.308594 114.804688 19.84375 C 115.464844 19.382812 116.148438 18.957031 116.859375 18.574219 C 117.570312 18.191406 118.300781 17.851562 119.050781 17.554688 C 119.800781 17.257812 120.566406 17.007812 121.34375 16.800781 C 122.125 16.59375 122.914062 16.433594 123.710938 16.320312 C 124.511719 16.207031 125.3125 16.140625 126.121094 16.121094 C 126.925781 16.101562 127.730469 16.132812 128.535156 16.207031 C 129.335938 16.285156 130.132812 16.40625 130.921875 16.578125 C 131.710938 16.746094 132.484375 16.960938 133.25 17.222656 C 134.011719 17.484375 134.757812 17.792969 135.484375 18.140625 C 136.210938 18.492188 136.914062 18.882812 137.59375 19.316406 C 138.277344 19.746094 138.929688 20.21875 139.554688 20.726562 C 140.179688 21.238281 140.773438 21.78125 141.332031 22.363281 C 141.894531 22.941406 142.417969 23.550781 142.90625 24.195312 C 143.398438 24.835938 143.847656 25.503906 144.257812 26.199219 C 144.667969 26.894531 145.035156 27.609375 145.359375 28.347656 C 145.683594 29.085938 145.964844 29.839844 146.203125 30.613281 C 146.4375 31.382812 146.628906 32.164062 146.773438 32.957031 C 146.917969 33.753906 147.015625 34.550781 147.0625 35.355469 C 147.113281 36.164062 147.117188 36.96875 147.070312 37.773438 C 147.027344 38.578125 146.933594 39.378906 146.792969 40.171875 C 146.652344 40.96875 146.46875 41.75 146.234375 42.523438 C 146.003906 43.296875 145.726562 44.050781 145.40625 44.792969 C 145.085938 45.53125 144.71875 46.25 144.3125 46.945312 C 143.90625 47.644531 143.460938 48.3125 142.976562 48.957031 C 142.492188 49.601562 141.96875 50.214844 141.414062 50.800781 C 140.855469 51.382812 140.265625 51.929688 139.644531 52.445312 C 139.019531 52.957031 138.371094 53.429688 137.691406 53.867188 L 153.085938 100.511719 L 229.308594 100.511719 L 244.667969 53.867188 C 243.988281 53.429688 243.339844 52.957031 242.714844 52.441406 C 242.09375 51.929688 241.503906 51.382812 240.945312 50.796875 C 240.386719 50.214844 239.863281 49.601562 239.378906 48.957031 C 238.894531 48.3125 238.445312 47.640625 238.039062 46.945312 C 237.632812 46.246094 237.269531 45.527344 236.949219 44.789062 C 236.628906 44.046875 236.351562 43.289062 236.117188 42.519531 C 235.886719 41.746094 235.699219 40.960938 235.558594 40.167969 C 235.417969 39.371094 235.328125 38.570312 235.28125 37.765625 C 235.238281 36.960938 235.238281 36.152344 235.289062 35.347656 C 235.339844 34.542969 235.433594 33.742188 235.578125 32.949219 C 235.722656 32.15625 235.914062 31.371094 236.152344 30.601562 C 236.386719 29.828125 236.667969 29.074219 236.992188 28.335938 C 237.320312 27.597656 237.6875 26.878906 238.097656 26.183594 C 238.507812 25.488281 238.957031 24.820312 239.445312 24.179688 C 239.9375 23.539062 240.460938 22.925781 241.023438 22.347656 C 241.582031 21.765625 242.175781 21.222656 242.800781 20.710938 C 243.429688 20.203125 244.082031 19.730469 244.761719 19.296875 C 245.445312 18.863281 246.148438 18.472656 246.875 18.125 C 247.601562 17.773438 248.347656 17.46875 249.113281 17.207031 C 249.875 16.945312 250.652344 16.730469 251.441406 16.558594 C 252.230469 16.390625 253.027344 16.265625 253.828125 16.191406 C 254.632812 16.113281 255.4375 16.085938 256.246094 16.105469 C 257.050781 16.121094 257.855469 16.1875 258.652344 16.300781 C 259.453125 16.417969 260.242188 16.578125 261.023438 16.785156 C 261.800781 16.988281 262.566406 17.242188 263.316406 17.539062 C 264.066406 17.835938 264.796875 18.175781 265.507812 18.558594 C 266.21875 18.941406 266.902344 19.367188 267.5625 19.832031 C 268.222656 20.296875 268.855469 20.796875 269.457031 21.335938 C 270.058594 21.875 270.625 22.445312 271.15625 23.050781 C 271.691406 23.65625 272.1875 24.292969 272.644531 24.957031 C 273.105469 25.621094 273.523438 26.308594 273.898438 27.023438 C 274.277344 27.738281 274.609375 28.46875 274.902344 29.222656 C 275.191406 29.976562 275.4375 30.742188 275.636719 31.523438 C 275.839844 32.304688 275.992188 33.097656 276.097656 33.898438 C 276.207031 34.695312 276.265625 35.5 276.277344 36.308594 C 276.289062 37.113281 276.253906 37.917969 276.171875 38.722656 C 276.085938 39.523438 275.957031 40.320312 275.78125 41.109375 C 275.605469 41.894531 275.382812 42.667969 275.113281 43.429688 C 274.84375 44.191406 274.53125 44.933594 274.175781 45.660156 C 273.820312 46.382812 273.425781 47.085938 272.984375 47.761719 C 272.546875 48.4375 272.070312 49.089844 271.554688 49.710938 C 271.039062 50.332031 270.488281 50.917969 269.90625 51.476562 C 269.320312 52.03125 268.703125 52.550781 268.058594 53.035156 C 267.414062 53.519531 266.738281 53.964844 266.042969 54.367188 C 265.34375 54.773438 264.625 55.132812 263.882812 55.453125 C 263.140625 55.773438 262.382812 56.046875 261.609375 56.277344 C 260.835938 56.507812 260.050781 56.691406 259.257812 56.828125 C 258.460938 56.964844 257.660156 57.054688 256.855469 57.097656 L 246.472656 100.46875 L 283.519531 100.46875 C 285.105469 100.472656 286.6875 100.554688 288.261719 100.714844 C 289.839844 100.875 291.40625 101.109375 292.960938 101.421875 C 294.515625 101.738281 296.050781 102.125 297.566406 102.589844 C 299.085938 103.050781 300.574219 103.585938 302.039062 104.195312 C 303.503906 104.804688 304.933594 105.484375 306.332031 106.234375 C 307.730469 106.984375 309.085938 107.800781 310.402344 108.683594 C 311.722656 109.566406 312.992188 110.511719 314.21875 111.515625 C 315.441406 112.523438 316.613281 113.589844 317.734375 114.710938 C 318.855469 115.832031 319.917969 117.007812 320.925781 118.234375 C 321.929688 119.460938 322.875 120.730469 323.753906 122.050781 C 324.636719 123.367188 325.449219 124.726562 326.195312 126.125 C 326.945312 127.523438 327.621094 128.957031 328.230469 130.421875 C 328.835938 131.882812 329.371094 133.375 329.832031 134.894531 C 330.296875 136.410156 330.679688 137.945312 330.992188 139.5 C 331.304688 141.054688 331.539062 142.621094 331.695312 144.199219 C 331.851562 145.777344 331.933594 147.359375 331.933594 148.945312 Z M 331.933594 148.972656 " fill-opacity="1" fill-rule="evenodd"/></g><g fill="#ffffff" fill-opacity="1"><g transform="translate(153.368916, 182.452795)"><g><path d="M 3.09375 -6.71875 L 4.4375 -6.71875 L 7.296875 0 L 5.765625 0 L 5.15625 -1.5 L 2.328125 -1.5 L 1.71875 0 L 0.234375 0 Z M 4.625 -2.796875 L 3.75 -4.953125 L 2.859375 -2.796875 Z M 4.625 -2.796875 "/></g></g></g><g fill="#ffffff" fill-opacity="1"><g transform="translate(160.886231, 182.452795)"><g><path d="M 0.875 -6.671875 L 2.328125 -6.671875 L 2.328125 0 L 0.875 0 Z M 0.875 -6.671875 "/></g></g></g></svg>